<?xml version="1.0" standalone="no"?>
<!DOCTYPE svg PUBLIC "-//W3C//DTD SVG 20010904//EN"
 "http://www.w3.org/TR/2001/REC-SVG-20010904/DTD/svg10.dtd">
<svg version="1.0" xmlns="http://www.w3.org/2000/svg"
 width="512.000000pt" height="512.000000pt" viewBox="0 0 512.000000 512.000000"
 preserveAspectRatio="xMidYMid meet">
<metadata>
Created by potrace 1.14, written by Peter Selinger 2001-2017
</metadata>
<g transform="translate(0.000000,512.000000) scale(0.100000,-0.100000)"
fill="#000000" stroke="none">
<path d="M352 4475 c-161 -38 -293 -167 -336 -326 -12 -46 -15 -281 -15 -1584
0 -947 4 -1549 10 -1580 35 -182 189 -328 375 -355 44 -6 852 -10 2234 -9
1751 0 2176 2 2222 13 118 27 219 117 256 228 l21 63 -2 1615 c-2 1513 -4
1618 -20 1658 -43 107 -115 190 -206 237 -109 57 -22 55 -1736 55 l-1580 -1
-66 -22 c-71 -24 -128 -59 -174 -107 l-28 -29 -48 43 c-53 48 -118 82 -194
101 -70 19 -638 19 -713 0z"/>
</g>
</svg>
